<svg id="Capa_1" data-name="Capa 1" xmlns="http://www.w3.org/2000/svg" viewBox="0 0 36 36"><title>contacto</title><path d="M30.06,8.18H6.94A3,3,0,0,0,4,11.29V25.51a3,3,0,0,0,2.94,3.11H30.06A3,3,0,0,0,33,25.51V11.29A3,3,0,0,0,30.06,8.18ZM6.94,9.68H30.06a1.48,1.48,0,0,1,1.15.56L20.58,17.77l0,0c-1.5,1.2-3.5,0-3.53,0L5.58,10.57A1.52,1.52,0,0,1,6.94,9.68ZM30.06,27.11H6.94a1.57,1.57,0,0,1-1.52-1.61V12.21L16.3,19a5.56,5.56,0,0,0,2.72.79A3.73,3.73,0,0,0,21.39,19l10.2-7.23V25.51A1.57,1.57,0,0,1,30.06,27.11Z" style="fill:#c13238;stroke:#c13238;stroke-miterlimit:10"/></svg>