<svg id="Capa_1" data-name="Capa 1" xmlns="http://www.w3.org/2000/svg" viewBox="0 0 30.73 33.9"><title>pdf-icon</title><path d="M23.8,1.75a2.35,2.35,0,0,1,1,.67q1.88,1.9,3.78,3.78a1.81,1.81,0,0,1,.57,1.37q0,11.49,0,23a1.43,1.43,0,0,1-1.61,1.61H6a1.42,1.42,0,0,1-1.53-1.23.48.48,0,0,1,.38-.6c.26,0,.44.13.5.46a.52.52,0,0,0,.57.49H27.49c.63,0,.76-.14.76-.77q0-11.12,0-22.24V7.87H24.08A.93.93,0,0,1,23,6.82Q23,4.9,23,3c0-.11,0-.21,0-.35H6c-.55,0-.71.16-.71.7q0,7.35,0,14.7c0,.09,0,.18,0,.27,0,.32-.18.52-.45.51s-.43-.2-.44-.53c0-.13,0-.25,0-.39a10.85,10.85,0,0,0-1.2,0,.94.94,0,0,0-.76.93,1,1,0,0,0,.74,1,2.34,2.34,0,0,0,.5,0H18a2.54,2.54,0,0,1,.62.05,1.37,1.37,0,0,1,1,1.39q0,3.28,0,6.56a1.39,1.39,0,0,1-1.47,1.45H3.51a1.87,1.87,0,0,1-1.93-1.94q0-4.22,0-8.43A1.86,1.86,0,0,1,3.5,17h.94V16.6c0-4.36,0-8.73,0-13.09A1.6,1.6,0,0,1,5.56,1.75ZM2.48,20.45c0,.16,0,.25,0,.35q0,3.21,0,6.41c0,.83.36,1.19,1.19,1.19H18c.6,0,.75-.15.75-.76q0-3.07,0-6.15c0-.65-.13-.78-.78-.78H3.9A2.59,2.59,0,0,1,2.48,20.45ZM23.92,7h4l-4-4Z" style="fill:#96211b"/><path d="M20.09,13.64l1.53.17a1.2,1.2,0,0,1,.2.05c.74.22,1.07.7.91,1.29a1.24,1.24,0,0,1-1.58.93,3.63,3.63,0,0,1-1.69-1,1.26,1.26,0,0,0-1.29-.38c-1,.21-2,.41-3.05.61a.76.76,0,0,0-.52.39c-.4.62-.83,1.23-1.28,1.81a2.56,2.56,0,0,1-.71.58A1,1,0,0,1,11.29,18a1.11,1.11,0,0,1-.22-1.43,2.94,2.94,0,0,1,.9-.87c.62-.35,1.31-.6,2-.91a.73.73,0,0,0,.36-.31q.77-1.79,1.5-3.61a.64.64,0,0,0,0-.47A7.18,7.18,0,0,1,15,8.19,1.24,1.24,0,0,1,16.1,6.63a1,1,0,0,1,1.11.8,4.53,4.53,0,0,1-.08,1.88,4,4,0,0,1-.18.75.74.74,0,0,0,.12.79L19,13.4a.65.65,0,0,0,.68.29,2.42,2.42,0,0,1,.41,0Zm-2,.15-1.63-2.14-1.09,2.64ZM13.4,15.93a3.45,3.45,0,0,0-1.51.93.28.28,0,0,0,0,.44.4.4,0,0,0,.36,0A4.16,4.16,0,0,0,13.4,15.93Zm2.73-6.74h.15c0-.47.07-.94.08-1.41,0-.08-.12-.24-.15-.23a.72.72,0,0,0-.33.18.32.32,0,0,0,0,.25C15.93,8.37,16,8.78,16.13,9.18Zm5.75,5.68a2.9,2.9,0,0,0-1.57-.24,5,5,0,0,0,1,.57C21.62,15.33,21.74,15.24,21.88,14.86Z" style="fill:#96211b"/><path d="M9.38,24.55c0-.57,0-1.15,0-1.72,0-.41.15-.55.56-.55h.89a1.81,1.81,0,0,1,1.84,1.35,2.81,2.81,0,0,1-.16,2.19,1.81,1.81,0,0,1-1.65,1H10c-.43,0-.59-.15-.6-.59S9.38,25.13,9.38,24.55Zm.91,1.39c.71.11,1.12,0,1.39-.44a2,2,0,0,0,0-1.92c-.35-.51-.86-.41-1.37-.4Z" style="fill:#96211b"/><path d="M6.27,25.26c0,.41,0,.77,0,1.13s-.18.52-.44.53-.44-.2-.45-.52q0-1.83,0-3.65c0-.35.15-.51.5-.52s.71,0,1.07,0a1.5,1.5,0,0,1,1.47,1.49A1.52,1.52,0,0,1,7,25.26C6.75,25.27,6.53,25.26,6.27,25.26Zm0-2.14v1.26c.43,0,.88.11,1.15-.33a.55.55,0,0,0,0-.64C7.13,23,6.7,23.14,6.3,23.12Z" style="fill:#96211b"/><path d="M14.66,23.13v1h.86c.34,0,.55.19.54.46s-.21.43-.53.43h-.88c0,.24,0,.48,0,.71s0,.51,0,.77a.44.44,0,0,1-.42.45.45.45,0,0,1-.46-.44c0-.06,0-.12,0-.18q0-1.72,0-3.44c0-.46.14-.61.6-.61h1.3c.32,0,.52.18.52.44s-.2.44-.52.45Z" style="fill:#96211b"/></svg>