<svg id="Capa_1" data-name="Capa 1" xmlns="http://www.w3.org/2000/svg" viewBox="0 0 36 36"><title>SOCIAL ICONS</title><path d="M2.23,29.1a13.77,13.77,0,0,0,9.65-2.78,6.84,6.84,0,0,1-6.17-4.62,7.56,7.56,0,0,0,2.94-.14,6.72,6.72,0,0,1-3.8-2.38A6.51,6.51,0,0,1,3.41,15a6.64,6.64,0,0,0,2.88.79c-2.91-2.45-3.57-5.37-2-8.87a18.92,18.92,0,0,0,13.65,7A17.26,17.26,0,0,1,17.91,12,6.31,6.31,0,0,1,22,6.23a6.35,6.35,0,0,1,7.1,1.36.54.54,0,0,0,.55.15,13.85,13.85,0,0,0,3.88-1.54A6.85,6.85,0,0,1,30.82,9.8a12.54,12.54,0,0,0,3.62-1,12.78,12.78,0,0,1-3,3.15.74.74,0,0,0-.33.7,18.84,18.84,0,0,1-2,8.81,18.44,18.44,0,0,1-7,7.81A18,18,0,0,1,15,31.82a19.68,19.68,0,0,1-6.72-.25,18.46,18.46,0,0,1-6-2.42Z" style="fill:#96211b"/></svg>