<svg id="Capa_1" data-name="Capa 1" xmlns="http://www.w3.org/2000/svg" viewBox="0 0 36 36"><title>SOCIAL ICONS</title><path d="M33,17v1.72c0,.09,0,.18,0,.27-.08.59-.11,1.18-.25,1.76A14.51,14.51,0,0,1,22.45,32c-.59.19-1.21.29-1.83.44V22.11H24l.65-4.25H20.61c0-1,0-1.92,0-2.87a2,2,0,0,1,1.67-2.08,4.9,4.9,0,0,1,.91-.08c.54,0,1.08,0,1.64,0V9.2l-.46-.06A14,14,0,0,0,20.56,9a5,5,0,0,0-3.18,1.58A5.49,5.49,0,0,0,16,14.18c0,1.12,0,2.24,0,3.36,0,.1,0,.2,0,.34H12.31v4.25H16V32.39c-.54-.12-1.05-.22-1.56-.36A14.7,14.7,0,0,1,3.64,18.51a14.13,14.13,0,0,1,2.07-8.16,14.41,14.41,0,0,1,12-7.15,13.53,13.53,0,0,1,6.87,1.37,14.48,14.48,0,0,1,8.23,10.74C32.88,15.87,32.92,16.44,33,17Z" style="fill:#96211b"/></svg>