<svg id="Capa_1" data-name="Capa 1" xmlns="http://www.w3.org/2000/svg" viewBox="0 0 36 36"><title>contacto</title><path d="M24.36,20.8h0a1.13,1.13,0,0,1,.53,1.2A2.92,2.92,0,0,1,21,24.46a13.52,13.52,0,0,1-5.86-3.75,13.68,13.68,0,0,1-3.73-5.89c-.42-1.87.18-3.37,2.42-3.89a1.13,1.13,0,0,1,1.2.53h0l1.63,2.24h0c.49.72-.58,1.67-1,2.19h0s.08.08.08.08l0,0a14.66,14.66,0,0,0,1.87,2.18c.16.16,2.24,2,2.3,2h0c.51-.45,1.46-1.53,2.19-1h0Z" style="fill:#c13238"/><path d="M18.11,2.85A14.89,14.89,0,1,0,33,17.74,14.89,14.89,0,0,0,18.11,2.85Zm0,2.74A12.14,12.14,0,1,1,6,17.74,12.14,12.14,0,0,1,18.11,5.6Z" style="fill:#c13238;fill-rule:evenodd"/></svg>