<svg id="Capa_1" data-name="Capa 1" xmlns="http://www.w3.org/2000/svg" viewBox="0 0 36 36"><title>SOCIAL ICONS</title><path d="M32,32.27H26.23c0-.15,0-.29,0-.42,0-3.05,0-6.11,0-9.16A11.58,11.58,0,0,0,26,20.49a2.47,2.47,0,0,0-2.52-2.12,3.11,3.11,0,0,0-2.81,1,3.78,3.78,0,0,0-.78,2.06c-.06.62-.09,1.23-.1,1.85,0,2.86,0,5.72,0,8.57v.38H14V13.74h5.52V16.2l.07,0a1.8,1.8,0,0,0,.14-.17,5.8,5.8,0,0,1,4.31-2.7,8.59,8.59,0,0,1,3.85.33,5.2,5.2,0,0,1,3.48,3.58A13.17,13.17,0,0,1,32,21.34c0,3.56,0,7.12,0,10.68C32,32.1,32,32.18,32,32.27Z" style="fill:#96211b"/><path d="M4.62,32.28V13.74h5.74V32.28Z" style="fill:#96211b"/><path d="M10.82,7.82A3.34,3.34,0,1,1,7.46,4.5,3.33,3.33,0,0,1,10.82,7.82Z" style="fill:#96211b"/></svg>